<?xml version="1.0" encoding="UTF-8" standalone="no"?>
<svg xmlns:ffdec="https://www.free-decompiler.com/flash" xmlns:xlink="http://www.w3.org/1999/xlink" ffdec:objectType="frame" height="14.0px" width="14.0px" xmlns="http://www.w3.org/2000/svg">
  <g transform="matrix(1.0, 0.0, 0.0, 1.0, 0.0, 0.0)">
    <use ffdec:characterId="255" height="14.0" transform="matrix(1.0, 0.0, 0.0, 1.0, 0.0, 0.0)" width="14.0" xlink:href="#sprite0"/>
    <use ffdec:characterId="257" height="8.0" transform="matrix(1.0, 0.0, 0.0, 1.0, 3.0, 3.0)" width="8.0" xlink:href="#sprite1"/>
  </g>
  <defs>
    <g id="sprite0">
      <use ffdec:characterId="254" height="14.0" transform="matrix(1.0, 0.0, 0.0, 1.0, 0.0, 0.0)" width="14.0" xlink:href="#shape0"/>
    </g>
    <g id="shape0">
      <path d="M14.0 2.0 L14.0 12.0 Q14.0 14.0 12.0 14.0 L2.0 14.0 Q0.0 14.0 0.0 12.0 L0.0 2.0 Q0.0 0.0 2.0 0.0 L12.0 0.0 Q14.0 0.0 14.0 2.0" fill="#6f7777" fill-rule="evenodd" stroke="none"/>
      <path d="M1.0 12.0 L1.0 2.0 Q1.0 1.0 2.0 1.0 L12.0 1.0 Q13.0 1.0 13.0 2.0 L13.0 12.0 Q13.0 13.0 12.0 13.0 L2.0 13.0 Q1.0 13.0 1.0 12.0" fill="url(#gradient0)" fill-rule="evenodd" stroke="none"/>
      <path d="M13.0 2.05 L13.0 3.0 Q12.95 2.05 12.0 2.05 L7.85 2.05 7.85 2.0 5.85 2.0 5.85 2.05 2.0 2.05 Q1.05 2.05 1.0 3.0 L1.0 2.05 Q1.0 1.05 2.0 1.05 L4.0 1.05 4.0 1.0 10.0 1.0 10.0 1.05 12.0 1.05 Q13.0 1.05 13.0 2.05" fill="#ffffff" fill-rule="evenodd" stroke="none"/>
    </g>
    <linearGradient gradientTransform="matrix(0.0, 0.0073, -0.0073, 0.0, 7.0, 7.0)" gradientUnits="userSpaceOnUse" id="gradient0" spreadMethod="pad" x1="-819.2" x2="819.2">
      <stop offset="0.0" stop-color="#c4cccc"/>
      <stop offset="1.0" stop-color="#eeeeee"/>
    </linearGradient>
    <g id="sprite1">
      <use ffdec:characterId="256" height="8.0" transform="matrix(1.0, 0.0, 0.0, 1.0, 0.0, 0.0)" width="8.0" xlink:href="#shape1"/>
    </g>
    <g id="shape1">
      <path d="M0.0 6.0 L3.0 6.0 3.0 7.0 0.0 7.0 0.0 6.0" fill="#000000" fill-rule="evenodd" stroke="none"/>
      <path d="M1.0 5.0 L3.0 5.0 3.0 6.0 1.0 6.0 1.0 5.0" fill="#000000" fill-rule="evenodd" stroke="none"/>
      <path d="M1.0 7.0 L2.0 7.0 2.0 8.0 1.0 8.0 1.0 7.0" fill="#000000" fill-rule="evenodd" stroke="none"/>
      <path d="M0.0 1.0 L3.0 1.0 3.0 2.0 0.0 2.0 0.0 1.0" fill="#000000" fill-rule="evenodd" stroke="none"/>
      <path d="M1.0 2.0 L3.0 2.0 3.0 3.0 1.0 3.0 1.0 2.0" fill="#000000" fill-rule="evenodd" stroke="none"/>
      <path d="M1.0 0.0 L2.0 0.0 2.0 1.0 1.0 1.0 1.0 0.0" fill="#000000" fill-rule="evenodd" stroke="none"/>
      <path d="M6.0 0.0 L7.0 0.0 7.0 3.0 6.0 3.0 6.0 0.0" fill="#000000" fill-rule="evenodd" stroke="none"/>
      <path d="M5.0 1.0 L8.0 1.0 8.0 2.0 5.0 2.0 5.0 1.0" fill="#000000" fill-rule="evenodd" stroke="none"/>
      <path d="M5.0 2.0 L6.0 2.0 6.0 3.0 5.0 3.0 5.0 2.0" fill="#000000" fill-rule="evenodd" stroke="none"/>
      <path d="M3.0 3.0 L5.0 3.0 5.0 5.0 3.0 5.0 3.0 3.0" fill="#000000" fill-rule="evenodd" stroke="none"/>
      <path d="M5.0 5.0 L7.0 5.0 7.0 7.0 5.0 7.0 5.0 5.0" fill="#000000" fill-rule="evenodd" stroke="none"/>
      <path d="M7.0 6.0 L8.0 6.0 8.0 7.0 7.0 7.0 7.0 6.0" fill="#000000" fill-rule="evenodd" stroke="none"/>
      <path d="M6.0 7.0 L7.0 7.0 7.0 8.0 6.0 8.0 6.0 7.0" fill="#000000" fill-rule="evenodd" stroke="none"/>
      <path d="M3.0 6.0 L3.0 5.0 5.0 5.0 5.0 6.0 3.0 6.0" fill="#000000" fill-opacity="0.6" fill-rule="evenodd" stroke="none"/>
      <path d="M3.0 3.0 L3.0 2.0 5.0 2.0 5.0 3.0 3.0 3.0" fill="#000000" fill-opacity="0.6" fill-rule="evenodd" stroke="none"/>
      <path d="M5.0 3.0 L6.0 3.0 6.0 5.0 5.0 5.0 5.0 3.0" fill="#000000" fill-opacity="0.6" fill-rule="evenodd" stroke="none"/>
      <path d="M2.0 3.0 L3.0 3.0 3.0 5.0 2.0 5.0 2.0 3.0" fill="#000000" fill-opacity="0.6" fill-rule="evenodd" stroke="none"/>
      <path d="M7.0 7.0 L8.0 7.0 8.0 8.0 7.0 8.0 7.0 7.0" fill="#000000" fill-opacity="0.6" fill-rule="evenodd" stroke="none"/>
      <path d="M7.0 0.0 L8.0 0.0 8.0 1.0 7.0 1.0 7.0 0.0" fill="#000000" fill-opacity="0.6" fill-rule="evenodd" stroke="none"/>
      <path d="M0.0 0.0 L1.0 0.0 1.0 1.0 0.0 1.0 0.0 0.0" fill="#000000" fill-opacity="0.6" fill-rule="evenodd" stroke="none"/>
      <path d="M0.0 7.0 L1.0 7.0 1.0 8.0 0.0 8.0 0.0 7.0" fill="#000000" fill-opacity="0.6" fill-rule="evenodd" stroke="none"/>
    </g>
  </defs>
</svg>
