<?xml version="1.0" encoding="UTF-8" standalone="no"?>
<svg xmlns:ffdec="https://www.free-decompiler.com/flash" xmlns:xlink="http://www.w3.org/1999/xlink" ffdec:objectType="frame" height="20.0px" width="24.05px" xmlns="http://www.w3.org/2000/svg">
  <g transform="matrix(1.0, 0.0, 0.0, 1.0, 1.0, 2.0)">
    <use ffdec:characterId="183" height="13.0" transform="matrix(1.0, 0.0, 0.0, 1.0, 0.0, 0.0)" width="13.05" xlink:href="#shape0"/>
    <use ffdec:characterId="185" height="17.0" transform="matrix(1.0, 0.0, 0.0, 1.0, -263.85, -157.0)" width="11.0" xlink:href="#sprite0"/>
    <use ffdec:characterId="186" height="7.05" transform="matrix(1.0, 0.0, 0.0, 1.0, 0.0, 0.0)" width="7.05" xlink:href="#shape2"/>
  </g>
  <defs>
    <g id="shape0">
      <path d="M16.55 18.0 Q13.8 17.95 11.9 16.1 10.0 14.2 10.05 11.5 10.0 8.75 11.9 6.9 13.8 5.0 16.55 5.0 19.25 5.0 21.15 6.9 23.0 8.75 23.05 11.5 23.0 14.2 21.15 16.1 19.25 17.95 16.55 18.0" fill="#000000" fill-opacity="0.2" fill-rule="evenodd" stroke="none"/>
      <path d="M16.0 5.0 Q18.45 5.0 20.2 6.75 21.95 8.5 22.0 11.0 22.0 13.45 20.2 15.2 18.45 16.95 16.0 17.0 L13.65 16.5 Q12.55 16.05 11.75 15.2 10.9 14.4 10.45 13.3 10.0 12.2 10.0 11.0 10.0 9.75 10.45 8.65 10.9 7.55 11.75 6.75 12.55 5.9 13.65 5.45 14.75 5.0 16.0 5.0" fill="url(#gradient0)" fill-rule="evenodd" stroke="none"/>
    </g>
    <radialGradient cx="0" cy="0" gradientTransform="matrix(0.0073, 0.0, 0.0, 0.0073, 16.0, 11.0)" gradientUnits="userSpaceOnUse" id="gradient0" r="819.2" spreadMethod="pad">
      <stop offset="0.0" stop-color="#fe5050"/>
      <stop offset="1.0" stop-color="#cc0000"/>
    </radialGradient>
    <g id="sprite0">
      <use ffdec:characterId="184" height="17.0" transform="matrix(1.0, 0.0, 0.0, 1.0, 0.0, 0.0)" width="11.0" xlink:href="#shape1"/>
    </g>
    <g id="shape1">
      <path d="M264.85 168.0 L264.85 169.0 263.85 169.0 263.85 170.0 262.85 170.0 262.85 155.0 263.85 155.0 263.85 156.0 264.85 156.0 264.85 157.0 263.85 157.0 263.85 168.0 264.85 168.0 264.85 167.0 265.85 167.0 265.85 166.0 266.85 166.0 266.85 167.0 267.85 167.0 267.85 169.0 268.85 169.0 268.85 171.0 270.85 171.0 270.85 169.0 269.85 169.0 269.85 167.0 268.85 167.0 268.85 165.0 271.85 165.0 271.85 164.0 270.85 164.0 270.85 163.0 269.85 163.0 269.85 162.0 268.85 162.0 268.85 161.0 267.85 161.0 267.85 160.0 266.85 160.0 266.85 159.0 265.85 159.0 265.85 158.0 264.85 158.0 264.85 157.0 265.85 157.0 265.85 158.0 266.85 158.0 266.85 159.0 267.85 159.0 267.85 160.0 268.85 160.0 268.85 161.0 269.85 161.0 269.85 162.0 270.85 162.0 270.85 163.0 271.85 163.0 271.85 164.0 272.85 164.0 272.85 165.0 273.85 165.0 273.85 166.0 269.85 166.0 269.85 167.0 270.85 167.0 270.85 169.0 271.85 169.0 271.85 172.0 268.85 172.0 268.85 171.0 267.85 171.0 267.85 169.0 266.85 169.0 266.85 167.0 265.85 167.0 265.85 168.0 264.85 168.0" fill="#ffffff" fill-rule="evenodd" stroke="none"/>
      <path d="M264.85 168.0 L263.85 168.0 263.85 157.0 264.85 157.0 264.85 158.0 265.85 158.0 265.85 159.0 266.85 159.0 266.85 160.0 267.85 160.0 267.85 161.0 268.85 161.0 268.85 162.0 269.85 162.0 269.85 163.0 270.85 163.0 270.85 164.0 271.85 164.0 271.85 165.0 268.85 165.0 268.85 167.0 269.85 167.0 269.85 169.0 270.85 169.0 270.85 171.0 268.85 171.0 268.85 169.0 267.85 169.0 267.85 167.0 266.85 167.0 266.85 166.0 265.85 166.0 265.85 167.0 264.85 167.0 264.85 168.0" fill="#000000" fill-rule="evenodd" stroke="none"/>
    </g>
    <g id="shape2">
      <path d="M17.4 11.0 L19.5 13.1 18.1 14.5 16.0 12.4 13.85 14.5 12.45 13.1 14.6 11.0 12.45 8.85 13.85 7.45 16.0 9.6 18.1 7.45 19.5 8.85 17.4 11.0" fill="#ffffff" fill-rule="evenodd" stroke="none"/>
    </g>
  </defs>
</svg>
